<svg viewBox="0 0 36 36" version="1.1" xmlns="http://www.w3.org/2000/svg" xmlns:xlink="http://www.w3.org/1999/xlink" xml:space="preserve" xmlns:serif="http://www.serif.com/" style="fill-rule:evenodd;clip-rule:evenodd;stroke-linejoin:round;stroke-miterlimit:2;">
    <g transform="matrix(1,0,0,1,-0.0994085,0.100443)">
        <g transform="matrix(-1,-1.22465e-16,1.22465e-16,-1,36.3504,35.4893)">
            <path d="M31.958,8.071C35.493,5.949 36.234,-0.117 35.527,0.59C36.234,-0.117 30.002,0.458 27.881,3.994C27.881,2.58 27.292,-1.073 23.484,2.735C19.156,7.063 22.069,8.392 22.069,9.806C22.069,11.22 24.898,11.22 24.898,11.22C24.898,11.22 24.773,13.924 26.188,13.924C27.602,13.924 28.816,16.704 33.134,12.386C36.942,8.578 33.372,8.071 31.958,8.071Z" style="fill:rgb(119,178,85);fill-rule:nonzero;"/>
        </g>
        <g transform="matrix(1.14956,0,0,1.14956,0.0270803,-5.41226)">
            <circle cx="8.999" cy="27" r="4" style="fill:rgb(161,201,109);"/>
        </g>
        <g transform="matrix(1,0,0,1,0.0994085,-0.100443)">
            <path d="M1,17L9,10L25,11L26,27L19,35C19,35 19.001,29.001 13,23C6.999,16.999 1,17 1,17Z" style="fill:rgb(125,72,10);fill-rule:nonzero;"/>
        </g>
        <g transform="matrix(-0.990876,1.21347e-16,-1.21347e-16,-0.990876,36.1664,34.9185)">
            <path d="M23.168,24.34C14.482,33.026 2.27,36.675 0.502,34.907C-1.266,33.139 2.384,20.927 11.069,12.241C19.755,3.555 24.519,6.598 26.665,8.744C28.812,10.891 31.854,15.654 23.168,24.34Z" style="fill:rgb(244,144,12);fill-rule:nonzero;"/>
            <clipPath id="_clip1">
                <path d="M23.168,24.34C14.482,33.026 2.27,36.675 0.502,34.907C-1.266,33.139 2.384,20.927 11.069,12.241C19.755,3.555 24.519,6.598 26.665,8.744C28.812,10.891 31.854,15.654 23.168,24.34Z" clip-rule="nonzero"/>
            </clipPath>
            <g clip-path="url(#_clip1)">
                <g transform="matrix(1.14861,0,0,1.14861,-2.30321,-2.97665)">
                    <path d="M21.875,14.56C20.903,13.588 19.105,11.775 17.183,8.454C16.43,8.946 15.629,9.545 14.774,10.262C17.577,13.875 22.895,15.579 21.875,14.56ZM14.39,22.632C13.349,21.591 11.36,19.582 9.285,15.786C8.598,16.618 7.936,17.479 7.305,18.356C10.112,21.953 15.406,23.648 14.39,22.632ZM23.691,22.281C20.11,20.273 18.201,18.371 17.189,17.36C16.169,16.338 17.881,21.675 21.506,24.474C21.817,24.184 23.292,22.707 23.691,22.281ZM11.508,31.605C12.403,31.113 13.312,30.58 14.223,30.008C10.95,28.103 9.154,26.325 8.189,25.36C7.267,24.437 8.575,28.707 11.508,31.605Z" style="fill:rgb(214,117,3);fill-rule:nonzero;"/>
                </g>
            </g>
        </g>
        <g transform="matrix(1,0,0,1,0.0994085,-0.100443)">
            <path d="M26.999,5C25.376,5 23.986,5.971 23.358,7.36C23.86,7.133 24.413,7 24.999,7C27.208,7 28.999,8.791 28.999,11C28.999,11.586 28.866,12.139 28.64,12.64C30.029,12.013 30.999,10.623 30.999,9C30.999,6.791 29.208,5 26.999,5Z" style="fill:rgb(125,72,10);fill-rule:nonzero;"/>
        </g>
        <g transform="matrix(1,0,0,1,0.0994085,-0.100443)">
            <path d="M8,28C8,28 8,24 9,23C10,22 22.001,12.001 23,13C23.999,13.999 13.999,26 12.999,27C11.999,28 8,28 8,28Z" style="fill:rgb(125,72,10);fill-rule:nonzero;"/>
        </g>
    </g>
</svg>
